# xmcd CD database file
#
# Track frame offsets:
#	150
#	21380
#	45875
#
# Disc length: 911 seconds
#
# Revision: 2
# Processed by: cddbd v1.5.2PL0 Copyright (c) Steve Scherf et al.
# Submitted via: CDex 1.70beta3
#
DISCID=19038d03
DTITLE=久保田利伸 - Dance If You Want It
DYEAR=1988
DGENRE=Japanese Pop
TTITLE0=Dance If You Want It (Radio Mix)
TTITLE1=Dance If You Want It (Extended Mix)
TTITLE2=Dance If You Want It (Album Mix)
EXTD=YEAR: 1988
EXTT0=
EXTT1=
EXTT2=
PLAYORDER=
